<svg xmlns="http://www.w3.org/2000/svg" width="145" height="96" viewBox="0 0 145 96">
  <g id="Group_349" data-name="Group 349" transform="translate(-792 -2119)">
    <g id="Rectangle_13" data-name="Rectangle 13" transform="translate(792 2119)" fill="#fff" stroke="#c9c9c9" stroke-width="0.5">
      <rect width="145" height="96" rx="5" stroke="none"/>
      <rect x="0.25" y="0.25" width="144.5" height="95.5" rx="4.75" fill="none"/>
    </g>
    <g id="air-conditioner" transform="translate(834.872 2142.695)">
      <g id="Group_35" data-name="Group 35" transform="translate(0 0)">
        <g id="Group_34" data-name="Group 34" transform="translate(0 0)">
          <path id="Path_78" data-name="Path 78" d="M53.94,32H4.9A4.91,4.91,0,0,0,0,36.9V56.518a4.91,4.91,0,0,0,4.9,4.9H53.94a4.91,4.91,0,0,0,4.9-4.9V36.9A4.91,4.91,0,0,0,53.94,32ZM6.865,33.961H51.979V36.9a2.942,2.942,0,0,1-2.942,2.942H9.807A2.942,2.942,0,0,1,6.865,36.9Zm45.114,25.5H6.865V58.48H51.979Zm0-2.942H6.865v-.981H51.979Zm0-2.942H6.865V52.6H51.979Zm4.9,2.942A2.942,2.942,0,0,1,53.94,59.46V51.615a.981.981,0,0,0-.981-.981H5.884a.981.981,0,0,0-.981.981V59.46a2.942,2.942,0,0,1-2.942-2.942V36.9A2.942,2.942,0,0,1,4.9,33.961V36.9a4.91,4.91,0,0,0,4.9,4.9H49.036a4.91,4.91,0,0,0,4.9-4.9V33.961A2.942,2.942,0,0,1,56.882,36.9Z" transform="translate(0 -32)" fill="#646464"/>
          <path id="Path_79" data-name="Path 79" d="M200.827,160h-7.846a.981.981,0,1,0,0,1.961h7.846a.981.981,0,0,0,0-1.961Z" transform="translate(-168.462 -144.308)" fill="#646464"/>
          <path id="Path_80" data-name="Path 80" d="M393.961,128h-.981a.981.981,0,1,0,0,1.961h.981a.981.981,0,1,0,0-1.961Z" transform="translate(-343.944 -116.231)" fill="#646464"/>
          <path id="Path_81" data-name="Path 81" d="M425.961,128h-.981a.981.981,0,0,0,0,1.961h.981a.981.981,0,1,0,0-1.961Z" transform="translate(-372.021 -116.231)" fill="#646464"/>
          <path id="Path_82" data-name="Path 82" d="M227.919,288.981a.981.981,0,0,0-1.961,0,3.706,3.706,0,0,1-.816,2.4,5.877,5.877,0,0,0,0,6.972,3.935,3.935,0,0,1,0,4.8A5.633,5.633,0,0,0,224,306.634a.981.981,0,0,0,1.961,0,3.71,3.71,0,0,1,.816-2.4,5.884,5.884,0,0,0,0-6.974,3.932,3.932,0,0,1,0-4.8A5.627,5.627,0,0,0,227.919,288.981Z" transform="translate(-196.535 -256.617)" fill="#646464"/>
          <path id="Path_83" data-name="Path 83" d="M163.919,288.981a.981.981,0,0,0-1.961,0,3.706,3.706,0,0,1-.816,2.4,5.877,5.877,0,0,0,0,6.972,3.935,3.935,0,0,1,0,4.8A5.633,5.633,0,0,0,160,306.634a.981.981,0,0,0,1.961,0,3.71,3.71,0,0,1,.816-2.4,5.884,5.884,0,0,0,0-6.974,3.932,3.932,0,0,1,0-4.8A5.627,5.627,0,0,0,163.919,288.981Z" transform="translate(-140.381 -256.617)" fill="#646464"/>
          <path id="Path_84" data-name="Path 84" d="M291.919,288.981a.981.981,0,0,0-1.961,0,3.706,3.706,0,0,1-.816,2.4,5.877,5.877,0,0,0,0,6.972,3.935,3.935,0,0,1,0,4.8A5.633,5.633,0,0,0,288,306.634a.981.981,0,1,0,1.961,0,3.71,3.71,0,0,1,.816-2.4,5.884,5.884,0,0,0,0-6.974,3.932,3.932,0,0,1,0-4.8A5.627,5.627,0,0,0,291.919,288.981Z" transform="translate(-252.69 -256.617)" fill="#646464"/>
        </g>
      </g>
    </g>
  </g>
</svg>
