<svg xmlns="http://www.w3.org/2000/svg" width="320.725" height="72.842" viewBox="0 0 320.725 72.842">
  <g id="Group_348" data-name="Group 348" transform="translate(-245.019 269.25)">
    <g id="outline" transform="translate(245.019 -265.602)">
      <path id="Path_22" data-name="Path 22" d="M191.743,304.4a1.357,1.357,0,0,0-1.919,0l-5.427,5.427a1.357,1.357,0,0,0-.4.959v5.427a1.357,1.357,0,0,0,1.357,1.357h10.854a1.357,1.357,0,0,0,1.357-1.357v-5.427a1.357,1.357,0,0,0-.4-.959Zm3.111,10.457h-2.713V312.14a1.357,1.357,0,0,0-2.714,0v2.714h-2.714v-3.508l4.07-4.07,4.07,4.07Z" transform="translate(-155.508 -260.584)" fill="#fff"/>
      <path id="Path_23" data-name="Path 23" d="M197.427,210.854A5.427,5.427,0,1,0,192,205.427,5.427,5.427,0,0,0,197.427,210.854Zm0-8.141a2.714,2.714,0,1,1-2.714,2.714A2.714,2.714,0,0,1,197.427,202.713Z" transform="translate(-162.151 -174.222)" fill="#fff"/>
      <path id="Path_24" data-name="Path 24" d="M101.427,200a5.427,5.427,0,1,0,5.427,5.427A5.427,5.427,0,0,0,101.427,200Zm0,8.141a2.714,2.714,0,1,1,2.714-2.714A2.713,2.713,0,0,1,101.427,208.14Z" transform="translate(-82.432 -174.222)" fill="#fff"/>
      <path id="Path_25" data-name="Path 25" d="M304.14,224a1.357,1.357,0,0,0-1.357,1.357,2.714,2.714,0,0,1-4.522,2.023,1.357,1.357,0,0,0-1.81,2.022,5.427,5.427,0,0,0,9.046-4.045A1.357,1.357,0,0,0,304.14,224Z" transform="translate(-248.513 -194.151)" fill="#fff"/>
      <path id="Path_26" data-name="Path 26" d="M101.427,320a5.427,5.427,0,1,0,5.427,5.427A5.427,5.427,0,0,0,101.427,320Zm0,8.141a2.714,2.714,0,1,1,2.714-2.714A2.713,2.713,0,0,1,101.427,328.141Z" transform="translate(-82.432 -273.87)" fill="#fff"/>
      <path id="Path_27" data-name="Path 27" d="M293.427,320a5.427,5.427,0,1,0,5.427,5.427A5.427,5.427,0,0,0,293.427,320Zm0,8.141a2.714,2.714,0,1,1,2.714-2.714A2.714,2.714,0,0,1,293.427,328.141Z" transform="translate(-241.87 -273.87)" fill="#fff"/>
      <path id="Path_28" data-name="Path 28" d="M92.2,59.194a4.766,4.766,0,0,0-4.737-4.409h-7.7V52.07a4.07,4.07,0,1,0-8.141,0v2.714H63.487V52.07a4.07,4.07,0,1,0-8.141,0v2.714H47.205V52.07a4.07,4.07,0,1,0-8.141,0v2.714H30.924V52.07a4.07,4.07,0,1,0-8.141,0v2.714H19.053A3.056,3.056,0,0,0,16,57.836v56.305a3.056,3.056,0,0,0,3.053,3.053H83.5a3.056,3.056,0,0,0,3.033-2.714h8.161a1.357,1.357,0,0,0,1.353-1.453ZM74.341,52.07a1.357,1.357,0,1,1,2.714,0V57.5a1.357,1.357,0,1,1-2.714,0Zm-16.281,0a1.357,1.357,0,1,1,2.714,0V57.5a1.357,1.357,0,1,1-2.714,0Zm-16.281,0a1.357,1.357,0,1,1,2.714,0V57.5a1.357,1.357,0,1,1-2.714,0Zm-16.281,0a1.357,1.357,0,1,1,2.714,0V57.5a1.357,1.357,0,1,1-2.714,0ZM19.053,57.5h3.731a4.07,4.07,0,0,0,8.141,0h8.141a4.07,4.07,0,0,0,8.141,0h8.141a4.07,4.07,0,1,0,8.141,0h8.141a4.07,4.07,0,1,0,8.141,0h4.07v5.427H18.714V57.836A.339.339,0,0,1,19.053,57.5Zm64.785,56.645a.339.339,0,0,1-.339.339H19.053a.339.339,0,0,1-.339-.339v-48.5H83.838Zm2.714-2.374V57.5h.912a2.042,2.042,0,0,1,2.03,1.89l3.741,52.38Z" transform="translate(-16 -48)" fill="#fff"/>
      <path id="Path_29" data-name="Path 29" d="M304.141,408h-6.784a1.357,1.357,0,0,0,0,2.714h6.784a1.357,1.357,0,0,0,0-2.714Z" transform="translate(-248.513 -346.946)" fill="#fff"/>
      <path id="Path_30" data-name="Path 30" d="M370.714,408h-1.357a1.357,1.357,0,1,0,0,2.714h1.357a1.357,1.357,0,1,0,0-2.714Z" transform="translate(-308.303 -346.946)" fill="#fff"/>
      <path id="Path_31" data-name="Path 31" d="M307.723,176.314a1.357,1.357,0,0,0-1.911.174l-5.833,7-1.663-1.663a1.357,1.357,0,0,0-1.919,1.919l2.713,2.714a1.357,1.357,0,0,0,.959.4h.061a1.357,1.357,0,0,0,.981-.487l6.784-8.141A1.357,1.357,0,0,0,307.723,176.314Z" transform="translate(-248.513 -154.291)" fill="#fff"/>
    </g>
    <g id="credit-card_10_" data-name="credit-card (10)" transform="translate(362.721 -268.742)">
      <g id="Group_2" data-name="Group 2" transform="translate(0 14.992)">
        <g id="Group_1" data-name="Group 1">
          <path id="Path_32" data-name="Path 32" d="M77.465,157.982a2.5,2.5,0,0,0-2.5,2.5v17.492H5V147.987H32.485a2.5,2.5,0,1,0,0-5H5v-10H32.485a2.5,2.5,0,0,0,0-5H5a5,5,0,0,0-5,5v44.979a5,5,0,0,0,5,5H74.966a5,5,0,0,0,5-5V160.481A2.5,2.5,0,0,0,77.465,157.982Z" transform="translate(0 -127.996)" fill="#fff" stroke="#7a94a6" stroke-width="1"/>
        </g>
      </g>
      <g id="Group_4" data-name="Group 4" transform="translate(9.995 44.978)">
        <g id="Group_3" data-name="Group 3">
          <path id="Path_33" data-name="Path 33" d="M76.494,320h-10a2.5,2.5,0,0,0,0,5h10a2.5,2.5,0,0,0,0-5Z" transform="translate(-64 -319.996)" fill="#fff" stroke="#7a94a6" stroke-width="1"/>
        </g>
      </g>
      <g id="Group_6" data-name="Group 6" transform="translate(39.982 0)">
        <g id="Group_5" data-name="Group 5" transform="translate(0 0)">
          <path id="Path_34" data-name="Path 34" d="M294.467,39.7l-17.492-7.5a2.551,2.551,0,0,0-1.974,0l-17.492,7.5A2.5,2.5,0,0,0,256,42v10c0,13.749,5.083,21.785,18.746,29.656a2.512,2.512,0,0,0,2.489,0C290.9,73.8,295.982,65.762,295.982,51.994V42A2.5,2.5,0,0,0,294.467,39.7Zm-3.483,12.294c0,11.54-3.818,17.892-14.993,24.589C264.816,69.871,261,63.518,261,51.994V43.647l14.993-6.427,14.993,6.427Z" transform="translate(-256 -32.004)" fill="#fff" stroke="#7a94a6" stroke-width="1"/>
        </g>
      </g>
      <g id="Group_8" data-name="Group 8" transform="translate(49.979 14.995)">
        <g id="Group_7" data-name="Group 7" transform="translate(0 0)">
          <path id="Path_35" data-name="Path 35" d="M339.066,128.558a2.515,2.515,0,0,0-3.513.39l-7.856,9.826-3.109-4.648a2.5,2.5,0,0,0-4.158,2.769l5,7.5a2.519,2.519,0,0,0,1.974,1.115h.1a2.5,2.5,0,0,0,1.954-.94l10-12.494A2.5,2.5,0,0,0,339.066,128.558Z" transform="translate(-320.011 -128.016)" fill="#fff" stroke="#7a94a6" stroke-width="1"/>
        </g>
      </g>
    </g>
    <g id="Group_28" data-name="Group 28" transform="translate(485.54 -268.742)">
      <g id="Group_10" data-name="Group 10" transform="translate(0 16.764)">
        <g id="Group_9" data-name="Group 9">
          <path id="Path_36" data-name="Path 36" d="M772.1,827.515H712.041a9.983,9.983,0,0,1-9.949-9.994V782.34a9.983,9.983,0,0,1,9.949-9.994H772.1a9.983,9.983,0,0,1,9.949,9.994v35.181A9.983,9.983,0,0,1,772.1,827.515Zm-60.057-52.771a7.581,7.581,0,0,0-7.55,7.6v35.181a7.582,7.582,0,0,0,7.55,7.6H772.1a7.582,7.582,0,0,0,7.551-7.6V782.34a7.582,7.582,0,0,0-7.551-7.6Z" transform="translate(-702.092 -772.346)" fill="#fff" stroke="#fff" stroke-width="0.5"/>
        </g>
      </g>
      <g id="Group_15" data-name="Group 15" transform="translate(10.693 24.885)">
        <g id="Group_12" data-name="Group 12" transform="translate(0 0)">
          <g id="Group_11" data-name="Group 11">
            <path id="Path_37" data-name="Path 37" d="M738.748,806.266h-3.661a2.114,2.114,0,0,1-2.114-2.109v-6.251a2.114,2.114,0,0,1,2.114-2.109h3.661a2.115,2.115,0,0,1,2.116,2.109v6.251A2.115,2.115,0,0,1,738.748,806.266Zm-3.377-2.4h3.094v-5.673h-3.094Z" transform="translate(-732.973 -795.797)" fill="#fff" stroke="#fff" stroke-width="0.5"/>
          </g>
        </g>
        <g id="Group_14" data-name="Group 14" transform="translate(50.68 0)">
          <g id="Group_13" data-name="Group 13">
            <path id="Path_38" data-name="Path 38" d="M885.112,806.266h-3.662a2.114,2.114,0,0,1-2.115-2.109v-6.251a2.114,2.114,0,0,1,2.115-2.109h3.662a2.115,2.115,0,0,1,2.116,2.109v6.251A2.115,2.115,0,0,1,885.112,806.266Zm-3.377-2.4h3.094v-5.673h-3.094Z" transform="translate(-879.336 -795.797)" fill="#fff" stroke="#fff" stroke-width="0.5"/>
          </g>
        </g>
      </g>
      <g id="Group_17" data-name="Group 17" transform="translate(22.355)">
        <g id="Group_16" data-name="Group 16">
          <path id="Path_39" data-name="Path 39" d="M774.623,743.093h-7.967v-8.727c-.006-.175-.138-5.251,2.782-8.269a7.23,7.23,0,0,1,5.412-2.167H793.7a7.23,7.23,0,0,1,5.412,2.167c2.921,3.018,2.79,8.093,2.783,8.308v8.688h-7.967l-.192-8.064a5.656,5.656,0,0,0-.393-2.188c-.272-.609-.95-.916-2.017-.916h-14.1c-1.067,0-1.745.309-2.017.916a5.7,5.7,0,0,0-.393,2.188c0,.085-.163,6.893-.163,6.893Zm21.649-2.4H799.5v-6.329c0-.08.1-4.327-2.115-6.608a4.858,4.858,0,0,0-3.682-1.429H774.851a4.86,4.86,0,0,0-3.689,1.436c-1.843,1.905-2.147,5.383-2.109,6.562v6.368h3.227c.045-1.935.132-5.6.135-5.717a7.939,7.939,0,0,1,.6-3.115,4.25,4.25,0,0,1,4.207-2.335h14.1a4.251,4.251,0,0,1,4.207,2.336,7.961,7.961,0,0,1,.6,3.109Z" transform="translate(-766.654 -723.93)" fill="#fff" stroke="#fff" stroke-width="0.5"/>
        </g>
      </g>
      <g id="Group_19" data-name="Group 19" transform="translate(1.2 28.458)">
        <g id="Group_18" data-name="Group 18" transform="translate(0 0)">
          <rect id="Rectangle_4" data-name="Rectangle 4" width="77.556" height="2.399" fill="#fff" stroke="#fff" stroke-width="0.5"/>
        </g>
      </g>
      <g id="Group_21" data-name="Group 21" transform="translate(30.497)">
        <g id="Group_20" data-name="Group 20">
          <path id="Path_40" data-name="Path 40" d="M809.13,731.925H790.167v-8H809.13Zm-16.564-2.4h14.165v-3.2H792.565Z" transform="translate(-790.167 -723.93)" fill="#fff" stroke="#fff" stroke-width="0.5"/>
        </g>
      </g>
      <g id="Group_23" data-name="Group 23" transform="translate(42.803 51.435)">
        <g id="Group_22" data-name="Group 22" transform="translate(0)">
          <path id="Path_41" data-name="Path 41" d="M839.306,887.35a1.2,1.2,0,0,1-.324-.044l-12.4-3.48a1.2,1.2,0,0,1-.515-2.013l9.213-9a1.2,1.2,0,0,1,2,.562l3.187,12.479a1.2,1.2,0,0,1-1.162,1.5Zm-10.076-5.273,8.4,2.358-2.158-8.452Z" transform="translate(-825.707 -872.474)" fill="#fff" stroke="#fff" stroke-width="0.5"/>
        </g>
      </g>
      <g id="Group_25" data-name="Group 25" transform="translate(59.322 45.688)">
        <g id="Group_24" data-name="Group 24" transform="translate(0)">
          <path id="Path_42" data-name="Path 42" d="M879.411,867.87a6,6,0,1,1,6-6A6,6,0,0,1,879.411,867.87Zm0-9.6a3.6,3.6,0,1,0,3.6,3.6A3.6,3.6,0,0,0,879.411,858.275Z" transform="translate(-873.415 -855.877)" fill="#fff" stroke="#fff" stroke-width="0.5"/>
        </g>
      </g>
      <g id="Group_27" data-name="Group 27" transform="translate(60.507 48.393)">
        <g id="Group_26" data-name="Group 26" transform="translate(0 0)">
          <rect id="Rectangle_5" data-name="Rectangle 5" width="9.59" height="2.398" transform="translate(0 4.433) rotate(-27.531)" fill="#fff" stroke="#fff" stroke-width="0.5"/>
        </g>
      </g>
    </g>
  </g>
</svg>
