<svg xmlns="http://www.w3.org/2000/svg" width="145" height="96" viewBox="0 0 145 96">
  <g id="Group_353" data-name="Group 353" transform="translate(-965 -2238)">
    <g id="Rectangle_53" data-name="Rectangle 53" transform="translate(965 2238)" fill="#fff" stroke="#c9c9c9" stroke-width="0.5">
      <rect width="145" height="96" rx="5" stroke="none"/>
      <rect x="0.25" y="0.25" width="144.5" height="95.5" rx="4.75" fill="none"/>
    </g>
    <g id="charger" transform="translate(971.943 2258.364)">
      <path id="Path_92" data-name="Path 92" d="M94.577,8.635a1.1,1.1,0,0,0-1.1-1.1H92.6V1.65a1.65,1.65,0,1,0-3.3,0V7.535h-5.5V1.65a1.65,1.65,0,1,0-3.3,0V7.535h-.88a1.1,1.1,0,0,0-1.1,1.1v5.53H94.577Z" transform="translate(-32.04)" fill="#646464"/>
      <path id="Path_93" data-name="Path 93" d="M64.352,180.27a2.148,2.148,0,0,0,2.145-2.145v-17.21a2.148,2.148,0,0,0-2.145-2.145H44.66a2.148,2.148,0,0,0-2.145,2.145v17.21a2.148,2.148,0,0,0,2.145,2.145Zm-6.1-10.1-1.841,4.27a1.65,1.65,0,0,1-3.029-1.307l.848-1.967H52.271a1.65,1.65,0,0,1-1.515-2.3L52.6,164.6a1.65,1.65,0,1,1,3.029,1.307l-.848,1.967h1.962A1.65,1.65,0,0,1,58.256,170.173Z" transform="translate(0 -141.306)" fill="#646464"/>
      <path id="Path_94" data-name="Path 94" d="M393.567,130.023a1.1,1.1,0,0,0-1.1-1.1h-5.155a1.1,1.1,0,0,0-1.1,1.1v4.635h7.362v-4.635Z" transform="translate(-305.885 -114.738)" fill="#646464"/>
      <path id="Path_95" data-name="Path 95" d="M148.249,211.19h-9.415a.553.553,0,0,0-.552.552V216.2a3.507,3.507,0,0,0,3.507,3.506h.1v18.027a3.019,3.019,0,0,1-3.018,3.018H118.717a3.023,3.023,0,0,1-3-2.7c-.022-.207-.016-.029-.016-3.3h1.331a1.652,1.652,0,0,0,1.65-1.65v-2.871h-9.264v2.871a1.652,1.652,0,0,0,1.65,1.65h1.322c0,3.279,0,3.1.008,3.3a6.338,6.338,0,0,0,6.323,6.014h20.15a6.331,6.331,0,0,0,6.33-6.33V219.7h.1A3.506,3.506,0,0,0,148.8,216.2v-4.454A.553.553,0,0,0,148.249,211.19Z" transform="translate(-59.541 -187.96)" fill="#646464"/>
    </g>
  </g>
</svg>
