<svg xmlns="http://www.w3.org/2000/svg" width="35.772" height="35.772" viewBox="0 0 35.772 35.772">
  <g id="Group_346" data-name="Group 346" transform="translate(-1172.348 -601.879)">
    <g id="Rectangle_41" data-name="Rectangle 41" transform="translate(1178 607)" fill="#122c5b" stroke="#707070" stroke-width="1">
      <rect width="25" height="25" stroke="none"/>
      <rect x="0.5" y="0.5" width="24" height="24" fill="none"/>
    </g>
    <g id="instagram_1_" data-name="instagram (1)" transform="translate(1172.348 601.879)">
      <path id="Path_18" data-name="Path 18" d="M213.847,210.424A3.424,3.424,0,1,1,210.424,207,3.423,3.423,0,0,1,213.847,210.424Zm0,0" transform="translate(-192.537 -192.537)" fill="#fff"/>
      <path id="Path_19" data-name="Path 19" d="M151.911,137.851a3.4,3.4,0,0,0-1.949-1.949,5.683,5.683,0,0,0-1.907-.353c-1.083-.049-1.408-.06-4.15-.06s-3.067.01-4.15.06a5.686,5.686,0,0,0-1.907.354,3.4,3.4,0,0,0-1.949,1.949,5.684,5.684,0,0,0-.353,1.907c-.049,1.083-.06,1.408-.06,4.15s.011,3.067.06,4.15a5.682,5.682,0,0,0,.353,1.907,3.4,3.4,0,0,0,1.949,1.949,5.675,5.675,0,0,0,1.907.354c1.083.049,1.407.06,4.15.06s3.068-.01,4.15-.06a5.675,5.675,0,0,0,1.907-.354,3.4,3.4,0,0,0,1.949-1.949,5.687,5.687,0,0,0,.354-1.907c.049-1.083.06-1.408.06-4.15s-.01-3.067-.06-4.15A5.675,5.675,0,0,0,151.911,137.851ZM143.9,149.182a5.274,5.274,0,1,1,5.274-5.274A5.274,5.274,0,0,1,143.9,149.182Zm5.482-9.524a1.233,1.233,0,1,1,1.233-1.233A1.233,1.233,0,0,1,149.387,139.658Zm0,0" transform="translate(-126.018 -126.022)" fill="#fff"/>
      <path id="Path_20" data-name="Path 20" d="M17.886,0A17.886,17.886,0,1,0,35.772,17.886,17.888,17.888,0,0,0,17.886,0ZM28.095,22.121a7.535,7.535,0,0,1-.477,2.493,5.252,5.252,0,0,1-3,3,7.54,7.54,0,0,1-2.493.477c-1.1.05-1.445.062-4.234.062s-3.139-.012-4.235-.062a7.54,7.54,0,0,1-2.493-.477,5.252,5.252,0,0,1-3-3,7.533,7.533,0,0,1-.477-2.493c-.05-1.1-.062-1.445-.062-4.235s.012-3.139.062-4.234a7.536,7.536,0,0,1,.477-2.493,5.255,5.255,0,0,1,3-3,7.542,7.542,0,0,1,2.493-.477c1.1-.05,1.445-.062,4.234-.062s3.139.012,4.234.062a7.544,7.544,0,0,1,2.493.477,5.253,5.253,0,0,1,3,3,7.535,7.535,0,0,1,.478,2.493c.05,1.1.062,1.445.062,4.234S28.145,21.025,28.095,22.121Zm0,0" fill="#fff"/>
    </g>
  </g>
</svg>
