<svg xmlns="http://www.w3.org/2000/svg" width="145" height="96" viewBox="0 0 145 96">
  <g id="Group_351" data-name="Group 351" transform="translate(-1138 -2119)">
    <g id="Rectangle_51" data-name="Rectangle 51" transform="translate(1138 2119)" fill="#fff" stroke="#c9c9c9" stroke-width="0.5">
      <rect width="145" height="96" rx="5" stroke="none"/>
      <rect x="0.25" y="0.25" width="144.5" height="95.5" rx="4.75" fill="none"/>
    </g>
    <g id="legs" transform="translate(1190.896 2143.611)">
      <g id="Group_43" data-name="Group 43" transform="translate(0 0)">
        <g id="Group_42" data-name="Group 42" transform="translate(0 0)">
          <path id="Path_86" data-name="Path 86" d="M86.017,1.579A.982.982,0,0,0,84.458.385c-.076.1-7.731,10.01-15.264,13.44a11.667,11.667,0,0,1-5.373,1.006.982.982,0,0,0-1.059,1.195c.013.057,1.3,5.712,1.483,6.97.877,6.08-3.333,13.215-3.376,13.287a8.373,8.373,0,0,0-.053,5.809.988.988,0,0,0,.164.215,8.668,8.668,0,0,1,1.15,1.487,1.3,1.3,0,0,1-.039,1.414,1.341,1.341,0,0,1-1.327.6L60.71,45.8l-2.394-.2a.971.971,0,0,0-.294.02L47.9,47.883a19.518,19.518,0,0,0,7.5-8.456,14.755,14.755,0,0,0,1.323-6.5c0-.016,0-.032,0-.047L54.844,14.94a1.483,1.483,0,0,1,.271-.911L58.2,10.973a.982.982,0,1,0-1.383-1.394l-3.136,3.11a.975.975,0,0,0-.09.1,3.45,3.45,0,0,0-.7,2.279c0,.016,0,.032,0,.047l1.874,17.942A12.738,12.738,0,0,1,53.6,38.636a18.431,18.431,0,0,1-8.356,8.552.981.981,0,0,0-.489,1.044,2.244,2.244,0,0,0,2.5,1.8c.028,0,.056-.009.083-.015L58.3,47.575l2.22.181a3.305,3.305,0,0,0,3.2-1.466,3.267,3.267,0,0,0,.089-3.5,10.609,10.609,0,0,0-1.331-1.748,7.782,7.782,0,0,1,.07-3.748c.174-.29,3.932-6.647,3.77-12.94l2.908,7.209a12.71,12.71,0,0,1,.639,5.677,18.431,18.431,0,0,1-5.278,10.729.982.982,0,0,0-.14,1.145,2.245,2.245,0,0,0,2.941.933q.039-.019.077-.041l9.6-5.744,2.213-.509a3.306,3.306,0,0,0,2.592-2.391A3.267,3.267,0,0,0,80.872,38a10.6,10.6,0,0,0-1.81-1.247,7.776,7.776,0,0,1-1.1-3.586c0-.013.005-.025.008-.038.081-.438,1.937-10.791-1.093-16.907a31.371,31.371,0,0,0-2.246-3.37A63.7,63.7,0,0,0,86.017,1.579Zm-10.9,15.514c2.695,5.44,1,15.255.923,15.668A8.409,8.409,0,0,0,77.8,38.272a1,1,0,0,0,.221.152,8.622,8.622,0,0,1,1.557,1.055,1.3,1.3,0,0,1,.4,1.356,1.34,1.34,0,0,1-1.073.985l-.045.009-2.384.548a.983.983,0,0,0-.284.114l-8.858,5.3a19.514,19.514,0,0,0,4.486-10.363,14.754,14.754,0,0,0-.766-6.59l0-.01-5.669-14.05a13.716,13.716,0,0,0,4.62-1.167,24.315,24.315,0,0,0,3-1.652A29.539,29.539,0,0,1,75.118,17.093Z" transform="translate(-44.738 0)" fill="#646464"/>
          <g id="Group_39" data-name="Group 39" transform="translate(14.956 6.164)">
            <g id="Group_38" data-name="Group 38">
              <g id="Group_37" data-name="Group 37">
                <path id="Path_87" data-name="Path 87" d="M198.059,64.746a.981.981,0,1,1,.963-.79A.99.99,0,0,1,198.059,64.746Z" transform="translate(-197.079 -62.785)" fill="#646464"/>
              </g>
            </g>
          </g>
          <g id="Group_41" data-name="Group 41" transform="translate(18.099)">
            <g id="Group_40" data-name="Group 40">
              <path id="Path_88" data-name="Path 88" d="M230.068,5.018a.982.982,0,0,1-.684-1.686L232.53.278A.982.982,0,1,1,233.9,1.687l-3.146,3.054A.979.979,0,0,1,230.068,5.018Z" transform="translate(-229.086 0)" fill="#646464"/>
            </g>
          </g>
        </g>
      </g>
    </g>
  </g>
</svg>
