<svg xmlns="http://www.w3.org/2000/svg" width="275" height="176" viewBox="0 0 275 176">
  <g id="Group_357" data-name="Group 357" transform="translate(-2018 -2143)">
    <g id="Guests" transform="translate(2017.934 2143)">
      <g id="Base" transform="translate(0.066)" fill="#fff" stroke="#c9c9c9" stroke-miterlimit="10" stroke-width="1">
        <rect width="275" height="176" rx="5" stroke="none"/>
        <rect x="0.5" y="0.5" width="274" height="175" rx="4.5" fill="none"/>
      </g>
    </g>
    <text id="Loyal_Club" data-name="Loyal Club" transform="translate(2111 2263)" fill="#464646" font-size="17" font-family="Poppins-SemiBold, Poppins" font-weight="600"><tspan x="0" y="0">Loyal Club</tspan></text>
    <g id="vip-card" transform="translate(2131.856 2177.228)">
      <path id="Path_54" data-name="Path 54" d="M45.416,22.4a22.656,22.656,0,0,1-7.887,17.519l-.173.064a41.654,41.654,0,0,1-29.257-.1l-.437-.166h0A22.709,22.709,0,1,1,45.416,22.4Z" transform="translate(0 0)" fill="#22d7ff"/>
      <path id="Path_55" data-name="Path 55" d="M45.418,140.266a22.657,22.657,0,0,1-7.89,17.207l-.173.064a41.654,41.654,0,0,1-29.256-.1l-.437-.165A22.718,22.718,0,0,1,2.988,129a22.716,22.716,0,0,0,39.443,0A22.6,22.6,0,0,1,45.418,140.266Z" transform="translate(0 -117.557)" fill="#00b3fe"/>
      <path id="Path_56" data-name="Path 56" d="M196.7,150.089,191.342,169.9a22.617,22.617,0,0,1-14.819,5.5q-.721,0-1.43-.044h0l-4.441-1.2a2.524,2.524,0,0,1-1.777-3.1l7.188-26.558a2.524,2.524,0,0,1,3.1-1.778l15.769,4.268A2.524,2.524,0,0,1,196.7,150.089Z" transform="translate(-153.814 -129.984)" fill="#ff9f00"/>
      <path id="Path_57" data-name="Path 57" d="M194.72,232.716,191.342,245.2a22.617,22.617,0,0,1-14.819,5.5q-.721,0-1.43-.044h0l-4.441-1.2a2.524,2.524,0,0,1-1.777-3.095l5.2-19.229a2.523,2.523,0,0,1,3.1-1.777l15.769,4.268A2.524,2.524,0,0,1,194.72,232.716Z" transform="translate(-153.814 -205.281)" fill="#ec781b"/>
      <path id="Path_58" data-name="Path 58" d="M193.11,318.947l-1.768,6.531a22.617,22.617,0,0,1-14.819,5.5q-.721,0-1.431-.044l-4.441-1.2a2.524,2.524,0,0,1-1.777-3.1l3.594-13.279Z" transform="translate(-153.814 -285.563)" fill="#c55733"/>
      <path id="Path_59" data-name="Path 59" d="M233.031,153.029l-8.252,30.49q-1.039.1-2.105.1-.721,0-1.43-.044h0l-1.813-.491,8.506-31.431Z" transform="translate(-199.965 -138.198)" fill="#4e689b"/>
      <path id="Path_60" data-name="Path 60" d="M231.047,235.649l-6.268,23.16q-1.039.1-2.105.1-.721,0-1.43-.044h0l-1.813-.491,6.523-24.1Z" transform="translate(-199.965 -213.489)" fill="#374c81"/>
      <g id="Group_33" data-name="Group 33" transform="translate(28.813 34.691)">
        <path id="Path_61" data-name="Path 61" d="M346.433,392.64l-2.975.122,2.509,1.6a.332.332,0,0,1,.142.366l-.224.827a.332.332,0,0,1-.516.181l-3.477-2.533a.332.332,0,0,1-.125-.355l.3-1.106a.332.332,0,0,1,.288-.244l4.277-.422a.332.332,0,0,1,.353.417l-.244.9A.331.331,0,0,1,346.433,392.64Z" transform="translate(-340.252 -391.076)" fill="#fff"/>
        <path id="Path_62" data-name="Path 62" d="M335.465,439.7l-3.879-1.05a.332.332,0,0,1-.234-.407l.231-.855a.332.332,0,0,1,.407-.234l3.879,1.05a.332.332,0,0,1,.234.407l-.231.855A.332.332,0,0,1,335.465,439.7Z" transform="translate(-330.762 -433.055)" fill="#fff"/>
        <path id="Path_63" data-name="Path 63" d="M329.338,462.33l-3.878-1.049a.332.332,0,0,0-.407.233l-.232.855a.332.332,0,0,0,.234.407l.852.231-.169.625a2.352,2.352,0,0,0-.067,1.049q.631-.2,1.245-.442a.525.525,0,0,1-.021-.377l.148-.548,1.077.292-.039.144q.717-.325,1.407-.7l.085-.314A.332.332,0,0,0,329.338,462.33Z" transform="translate(-324.809 -455.043)" fill="#fff"/>
      </g>
      <path id="Path_64" data-name="Path 64" d="M228.778,330.188l-4,14.774q-1.039.1-2.1.1-.721,0-1.43-.044h0l-1.813-.491,4.254-15.715Z" transform="translate(-199.965 -299.642)" fill="#234177"/>
      <path id="Path_65" data-name="Path 65" d="M63.6,177.829h0a22.736,22.736,0,0,1-6.087.825q-.721,0-1.43-.044h0a22.614,22.614,0,0,1-13.617-5.657l-4.221-20.4a2.524,2.524,0,0,1,1.96-2.983l16-3.31a2.524,2.524,0,0,1,2.982,1.96l5.574,26.943A2.526,2.526,0,0,1,63.6,177.829Z" transform="translate(-34.798 -133.236)" fill="#ffe400"/>
      <path id="Path_66" data-name="Path 66" d="M79.4,254.214h0a22.736,22.736,0,0,1-6.087.825q-.721,0-1.43-.044h0a22.613,22.613,0,0,1-13.617-5.657l-2.683-12.966a2.525,2.525,0,0,1,1.96-2.983l16-3.31a2.524,2.524,0,0,1,2.982,1.96l4.036,19.508A2.526,2.526,0,0,1,79.4,254.214Z" transform="translate(-50.6 -209.621)" fill="#ffce00"/>
      <path id="Path_67" data-name="Path 67" d="M92.769,336.9a22.737,22.737,0,0,1-6.087.825q-.721,0-1.43-.044h0a22.613,22.613,0,0,1-13.617-5.657L70.2,325.092l20.941-4.332,2.787,13.472a2.524,2.524,0,0,1-1.159,2.667Z" transform="translate(-63.973 -292.306)" fill="#ff9f00"/>
      <path id="Path_68" data-name="Path 68" d="M102.406,196.328a22.557,22.557,0,0,1-5.718-1.584L90.93,166.909,96.1,165.84Z" transform="translate(-82.864 -151.129)" fill="#4e689b"/>
      <path id="Path_69" data-name="Path 69" d="M118.208,272.712a22.561,22.561,0,0,1-5.718-1.584l-4.22-20.4,5.169-1.069Z" transform="translate(-98.666 -227.513)" fill="#374c81"/>
      <path id="Path_70" data-name="Path 70" d="M233.341,355.766l-2.6,1.452,2.961.3a.332.332,0,0,1,.292.263l.174.839a.332.332,0,0,1-.378.395l-4.246-.69a.332.332,0,0,1-.272-.26l-.232-1.122a.332.332,0,0,1,.147-.347l3.626-2.307a.332.332,0,0,1,.5.213l.189.913A.332.332,0,0,1,233.341,355.766Z" transform="translate(-208.715 -322.809)" fill="#fff"/>
      <path id="Path_71" data-name="Path 71" d="M242.213,414.5l-3.935.814a.332.332,0,0,1-.392-.258l-.179-.868a.332.332,0,0,1,.258-.392l3.935-.814a.332.332,0,0,1,.392.258l.179.868A.332.332,0,0,1,242.213,414.5Z" transform="translate(-216.614 -376.338)" fill="#fff"/>
      <path id="Path_72" data-name="Path 72" d="M246.48,441.756a1.692,1.692,0,0,1-2.141-1.515l-.131-.634-.865.179a.332.332,0,0,1-.392-.258l-.179-.868a.332.332,0,0,1,.258-.392l3.935-.814a.332.332,0,0,1,.392.258l.378,1.827C247.98,440.73,247.527,441.54,246.48,441.756Zm-.343-1.429a.491.491,0,0,0,.429-.628l-.115-.556-1.092.226.115.556A.5.5,0,0,0,246.137,440.327Z" transform="translate(-221.229 -398.643)" fill="#fff"/>
      <path id="Path_73" data-name="Path 73" d="M136.288,360.114a22.557,22.557,0,0,1-5.718-1.584l-2.46-11.891,5.169-1.069Z" transform="translate(-116.746 -314.916)" fill="#234177"/>
    </g>
  </g>
</svg>
