<svg xmlns="http://www.w3.org/2000/svg" width="1518.129" height="246.886" viewBox="0 0 1518.129 246.886">
  <g id="Layer_6_copy" data-name="Layer 6 copy" transform="translate(-0.594 -70.874)">
    <path id="Path_106" data-name="Path 106" d="M166.543,144.9h16.032v-3.321h5.819V129.028h-5.819v-3.616h5.819v-6.276h-8.435V71.5h-10.8v47.637H161.68v6.276h4.863v3.616H161.68v12.552h4.863Z" transform="translate(329.163 0)" fill="none" stroke="#122c5b" stroke-linecap="round" stroke-linejoin="round" stroke-width="1.25"/>
    <rect id="Rectangle_43" data-name="Rectangle 43" width="32.366" height="9.396" transform="translate(792.239 157.169)" fill="none" stroke="#122c5b" stroke-linecap="round" stroke-linejoin="round" stroke-width="1.25"/>
    <rect id="Rectangle_44" data-name="Rectangle 44" width="31.136" height="9.397" transform="translate(975.969 180.399)" fill="none" stroke="#122c5b" stroke-linecap="round" stroke-linejoin="round" stroke-width="1.25"/>
    <path id="Path_107" data-name="Path 107" d="M1518.1,296.466v-9.407h-9.172l-8.754-20.868-8.751,20.868H1477.9V212.011l-16.81-4.821-37.48,3.3v64.6H1404.8V250.409l-40.531,9.148v16.279c-8.88-1.394-28.988-4.339-54.558-6.743-9.911-34.462-25.6-91.361-26.538-109.486C1281.789,133,1290.43,81.5,1290.43,81.5l-10.024,10.713s-.992,8.8-1.715,21.424h-12.425c-.723-12.62-1.715-21.424-1.715-21.424L1254.528,81.5s8.641,51.495,7.259,78.106c-.909,17.5-15.568,71.161-25.5,105.861a465.716,465.716,0,0,0-48.065,2.417v-6.072l-33.284-3.308V188.982l-40.409-3.173-19.452,3.173v76.891h-17.75v-13.6h-25.412V173.454H931.157v68.009H901.046V146.571h-7.793v18.366H867.945V146.571h-7.793V281.463l-12.462.8L838.7,258.4V150.224H778.144V296.466H762.951V268.095H757.88V237.248h-8.6v-6.487h-30.1V203.732H704.548V142.653H677.4v51.333H643.994V266h-7.778L616.153,279.6V133.78L600.2,132.053,568.82,133.78V242.872H557.537v32.979H533.9v-38.2h-14.18v-109.1H471.693V286.723H459.771V229.3H451v-6.264H418.44V229.3H407.568v46.985H382.642l.745,20.182h-6.539l-10.039-19.852H339.889l7.342,18.931-1.913.922h-2.276l-7.7-19.852H306.48l7.342,18.931-1.916.922h-2.273l-7.7-19.852H264.46l5.944,19.092-1.971.76h-2.215l-6.185-19.852H222.314l3.759,19.364-2.038.488H221.9l-3.851-19.852H180v19.852h-4.177V276.614H131.7l-3.851,19.852h-2.136l-2.038-.488,3.759-19.364H89.742l-5.871,19.852h-2.2l-1.98-.726,5.648-19.126H56.333l-5.871,19.852h-2.2l-1.98-.726,5.648-19.126H25.962l-6.692,19.852H1.219" transform="translate(0 20.518)" fill="none" stroke="#122c5b" stroke-linecap="round" stroke-linejoin="round" stroke-width="1.25"/>
    <path id="Path_108" data-name="Path 108" d="M390.228,161.5V149.725a430.9,430.9,0,0,1,43.2-2.429c-2.56,8.748-4.2,14.2-4.2,14.2" transform="translate(797.997 155.487)" fill="none" stroke="#122c5b" stroke-linecap="round" stroke-linejoin="round" stroke-width="1.25"/>
    <path id="Path_109" data-name="Path 109" d="M427.637,94.327c-.134,3.094-.229,6.365-.3,9.706H416.216c-.07-3.341-.162-6.612-.3-9.706Z" transform="translate(850.7 46.828)" fill="none" stroke="#122c5b" stroke-linecap="round" stroke-linejoin="round" stroke-width="1.25"/>
    <path id="Path_110" data-name="Path 110" d="M427.188,109.507h-11.18c.088-3.259.11-6.5.1-9.706h10.973C427.075,103.008,427.1,106.249,427.188,109.507Z" transform="translate(850.881 58.057)" fill="none" stroke="#122c5b" stroke-linecap="round" stroke-linejoin="round" stroke-width="1.25"/>
    <path id="Path_111" data-name="Path 111" d="M416.421,105.276H428.15c.174,3.286.433,6.521.747,9.706H415.673C415.984,111.8,416.247,108.562,416.421,105.276Z" transform="translate(850.194 69.289)" fill="none" stroke="#122c5b" stroke-linecap="round" stroke-linejoin="round" stroke-width="1.25"/>
    <path id="Path_112" data-name="Path 112" d="M427.05,114.12c.183-1.092.32-2.243.482-3.369h14.891c.159,1.126.3,2.276.482,3.369,3.521,21.128,12.221,64.933,18.082,93.985-15.971-1.3-33.528-2.31-51.5-2.578C415.329,176.514,423.632,134.628,427.05,114.12Z" transform="translate(837.502 80.52)" fill="none" stroke="#122c5b" stroke-linecap="round" stroke-linejoin="round" stroke-width="1.25"/>
    <path id="Path_113" data-name="Path 113" d="M407.427,161.481s1.123-5.465,2.893-14.177c20.426.226,40.525,1.434,58.366,2.981,1.419,6.96,2.288,11.2,2.288,11.2" transform="translate(833.278 155.503)" fill="none" stroke="#122c5b" stroke-linecap="round" stroke-linejoin="round" stroke-width="1.25"/>
    <path id="Path_114" data-name="Path 114" d="M434.664,158.672s-1.126-3.75-2.966-10c24.936,2.5,43.625,5.352,49.5,6.292v3.707" transform="translate(883.067 158.311)" fill="none" stroke="#122c5b" stroke-linecap="round" stroke-linejoin="round" stroke-width="1.25"/>
    <path id="Path_115" data-name="Path 115" d="M88.83,173.326l9.175-51.443a357.489,357.489,0,0,1,42.032-4.907l-12.511,56.349Z" transform="translate(179.722 93.291)" fill="none" stroke="#122c5b" stroke-linecap="round" stroke-linejoin="round" stroke-width="1.25"/>
    <path id="Path_116" data-name="Path 116" d="M102.923,173.516,115.476,117a156.634,156.634,0,0,1,28.79,1.395l-12.239,55.126Z" transform="translate(208.631 93.102)" fill="none" stroke="#122c5b" stroke-linecap="round" stroke-linejoin="round" stroke-width="1.25"/>
    <path id="Path_117" data-name="Path 117" d="M75.934,136.966h39.1l-3.785,21.224H73.576Z" transform="translate(148.431 134.296)" fill="none" stroke="#122c5b" stroke-linecap="round" stroke-linejoin="round" stroke-width="1.25"/>
    <path id="Path_118" data-name="Path 118" d="M100.483,163.029H59.811V131.639c14.863-3.167,30.047-6.444,45.23-9.642Z" transform="translate(120.193 103.589)" fill="none" stroke="#122c5b" stroke-linecap="round" stroke-linejoin="round" stroke-width="1.25"/>
    <path id="Path_119" data-name="Path 119" d="M130.146,158.19H101.04l4.714-21.224h29.1Z" transform="translate(204.768 134.296)" fill="none" stroke="#122c5b" stroke-linecap="round" stroke-linejoin="round" stroke-width="1.25"/>
    <path id="Path_120" data-name="Path 120" d="M113.872,172.009l12.08-54.39c25.082,5.038,27.276,16.749,27.276,16.749l-10.686,37.642Z" transform="translate(231.092 94.608)" fill="none" stroke="#122c5b" stroke-linecap="round" stroke-linejoin="round" stroke-width="1.25"/>
    <path id="Path_121" data-name="Path 121" d="M97.61,158.19h-37.8V136.966H99.967Z" transform="translate(120.193 134.296)" fill="none" stroke="#122c5b" stroke-linecap="round" stroke-linejoin="round" stroke-width="1.25"/>
    <path id="Path_122" data-name="Path 122" d="M91.1,136.966H129.6l-4.713,21.224H87.318Z" transform="translate(176.621 134.296)" fill="none" stroke="#122c5b" stroke-linecap="round" stroke-linejoin="round" stroke-width="1.25"/>
    <path id="Path_123" data-name="Path 123" d="M139.063,158.19H111.989l4.714-21.224h28.385Z" transform="translate(227.229 134.296)" fill="none" stroke="#122c5b" stroke-linecap="round" stroke-linejoin="round" stroke-width="1.25"/>
    <path id="Path_124" data-name="Path 124" d="M74.518,169.5l4.659-41.932c12.434-2.6,24.844-5.142,37.043-7.491,2.316-.445,4.519-.833,6.744-1.233L113.932,169.5Z" transform="translate(150.363 97.119)" fill="none" stroke="#122c5b" stroke-linecap="round" stroke-linejoin="round" stroke-width="1.25"/>
    <path id="Path_125" data-name="Path 125" d="M91.409,155.949H44.65l-2.279-20.536c15.547-2.945,32.051-6.362,49.038-9.966Z" transform="translate(84.417 110.668)" fill="none" stroke="#122c5b" stroke-linecap="round" stroke-linejoin="round" stroke-width="1.25"/>
    <path id="Path_126" data-name="Path 126" d="M32.757,158.19l-3.591-21.224H68.053l2.358,21.224Z" transform="translate(57.328 134.296)" fill="none" stroke="#122c5b" stroke-linecap="round" stroke-linejoin="round" stroke-width="1.25"/>
    <path id="Path_127" data-name="Path 127" d="M69.6,148.727H30.44l-2.279-13.463c11.983-1.52,25.168-3.683,39.24-6.295Z" transform="translate(55.268 117.891)" fill="none" stroke="#122c5b" stroke-linecap="round" stroke-linejoin="round" stroke-width="1.25"/>
    <path id="Path_128" data-name="Path 128" d="M10.607,151.9,7.135,127.423c1.748,8.5,11.5,12.407,26.861,13.188l1.91,11.287Z" transform="translate(12.136 114.72)" fill="none" stroke="#122c5b" stroke-linecap="round" stroke-linejoin="round" stroke-width="1.25"/>
    <path id="Path_129" data-name="Path 129" d="M9.646,141.214c-.83-1.349-12.565-25.573,56.832-18.479,69.2,7.073,87.489,8.76,87.592,8.77C84.078,146.215,18.926,156.269,9.646,141.214Z" transform="translate(14.732 102.439)" fill="none" stroke="#122c5b" stroke-linecap="round" stroke-linejoin="round" stroke-width="1.25"/>
    <path id="Path_130" data-name="Path 130" d="M21.808,158.19l-3.591-21.224H47.372l3.592,21.224Z" transform="translate(34.867 134.296)" fill="none" stroke="#122c5b" stroke-linecap="round" stroke-linejoin="round" stroke-width="1.25"/>
    <path id="Path_131" data-name="Path 131" d="M48.379,144.146H19.224l-1.883-11.141a228.029,228.029,0,0,0,28.851-1.8Z" transform="translate(33.072 122.472)" fill="none" stroke="#122c5b" stroke-linecap="round" stroke-linejoin="round" stroke-width="1.25"/>
    <path id="Path_132" data-name="Path 132" d="M45.644,158.19l-2.357-21.224H89.531V158.19Z" transform="translate(86.297 134.296)" fill="none" stroke="#122c5b" stroke-linecap="round" stroke-linejoin="round" stroke-width="1.25"/>
    <path id="Path_133" data-name="Path 133" d="M33.915,136.966l3.592,21.224H11.5L8.489,136.966Z" transform="translate(14.914 134.296)" fill="none" stroke="#122c5b" stroke-linecap="round" stroke-linejoin="round" stroke-width="1.25"/>
  </g>
</svg>
