<svg xmlns="http://www.w3.org/2000/svg" width="145" height="96" viewBox="0 0 145 96">
  <g id="Group_350" data-name="Group 350" transform="translate(-965 -2119)">
    <g id="Rectangle_50" data-name="Rectangle 50" transform="translate(965 2119)" fill="#fff" stroke="#c9c9c9" stroke-width="0.5">
      <rect width="145" height="96" rx="5" stroke="none"/>
      <rect x="0.25" y="0.25" width="144.5" height="95.5" rx="4.75" fill="none"/>
    </g>
    <g id="toilet" transform="translate(1011.63 2141.505)">
      <g id="Group_36" data-name="Group 36">
        <path id="Path_85" data-name="Path 85" d="M52.044,23.509a2.61,2.61,0,0,0-2.465-1.743H19.135a.87.87,0,0,0-.87.87v2.609h-1.74V13.068h.87a2.609,2.609,0,1,0,0-5.219h-.87V5.24h.87a.87.87,0,0,0,.87-.87V.891a.87.87,0,0,0-.87-.87H.87A.87.87,0,0,0,0,.891V4.37a.87.87,0,0,0,.87.87h.87V26.115a.87.87,0,0,0,.87.87h.87c.278,5.6,3.218,7.933,5.828,9.994,3.305,2.609,6.419,5.071,4.6,14.186a.87.87,0,0,0,.878,1.044H42.62a.87.87,0,0,0,.748-1.313c-2.488-4.14-2.488-7.506-2.488-12.6,5.341-1.74,9.194-6.2,9.568-11.455A2.609,2.609,0,0,0,52.044,23.509ZM17.4,9.589a.87.87,0,1,1,0,1.74h-.87V9.589ZM1.74,3.5V1.761H16.526V3.5Zm1.74,1.74H14.786V25.245H3.479ZM15.83,50.469c1.566-9.324-1.974-12.177-5.393-14.856-2.549-1.992-4.932-3.879-5.219-8.628H17.4c.391,5.219,4.227,9.568,9.516,11.307,0,4.906,0,8.22-2.244,12.177Zm25.32,0H26.694c1.931-3.844,2.009-7.254,2.009-11.69a16.6,16.6,0,0,0,3.479.383h3.479a16.591,16.591,0,0,0,3.479-.383C39.141,43.215,39.21,46.625,41.15,50.469ZM35.662,37.422H32.182c-6.854,0-12.482-4.61-12.995-10.438H48.656C48.143,32.812,42.515,37.422,35.662,37.422ZM49.578,25.245H20.005v-1.74H49.578a.87.87,0,0,1,0,1.74Z" transform="translate(0 -0.021)" fill="#646464"/>
      </g>
    </g>
  </g>
</svg>
