<svg xmlns="http://www.w3.org/2000/svg" width="35.663" height="35.663" viewBox="0 0 35.663 35.663">
  <g id="Group_345" data-name="Group 345" transform="translate(-1119.309 -602.988)">
    <g id="Rectangle_40" data-name="Rectangle 40" transform="translate(1125 609)" fill="#122c5b" stroke="#707070" stroke-width="1">
      <rect width="25" height="21" stroke="none"/>
      <rect x="0.5" y="0.5" width="24" height="20" fill="none"/>
    </g>
    <g id="twitter-logo-button" transform="translate(1119.309 602.988)">
      <g id="Group_15" data-name="Group 15">
        <path id="Path_17" data-name="Path 17" d="M17.832,0A17.832,17.832,0,1,0,35.663,17.832,17.852,17.852,0,0,0,17.832,0Zm7.955,13.75c.008.177.012.355.012.533A11.675,11.675,0,0,1,7.829,24.116a8.287,8.287,0,0,0,6.076-1.7,4.108,4.108,0,0,1-3.834-2.851,4.12,4.12,0,0,0,1.853-.069,4.1,4.1,0,0,1-3.292-4.024c0-.017,0-.035,0-.052a4.087,4.087,0,0,0,1.858.513,4.11,4.11,0,0,1-1.27-5.48,11.654,11.654,0,0,0,8.459,4.289A4.107,4.107,0,0,1,24.674,11a8.192,8.192,0,0,0,2.607-1,4.123,4.123,0,0,1-1.807,2.271,8.159,8.159,0,0,0,2.357-.646A8.256,8.256,0,0,1,25.786,13.75Z" fill="#fff"/>
      </g>
    </g>
  </g>
</svg>
